<svg width="178" height="40" viewBox="0 0 178 40" fill="none" xmlns="http://www.w3.org/2000/svg" role="img" aria-labelledby="title">
  <title id="title">Nikolaev.AI</title>
  <rect x="1" y="1" width="38" height="38" rx="11" fill="#0F766E"/>
  <path d="M11 29V11H15.1L25.2 22.7V11H29V29H25.1L14.8 17.1V29H11Z" fill="white"/>
  <path d="M18.7 26.4L25.9 11H30.1L22.9 26.4H18.7Z" fill="#A7F3D0"/>
  <path d="M52.3 28V12.8H55.5L64 22.5V12.8H67.1V28H64.1L55.4 18.1V28H52.3Z" fill="#111827"/>
  <path d="M74.1 28.2C70.8 28.2 68.4 25.8 68.4 22.5C68.4 19.2 70.8 16.8 74.1 16.8C77.4 16.8 79.8 19.2 79.8 22.5C79.8 25.8 77.4 28.2 74.1 28.2ZM74.1 25.6C75.6 25.6 76.7 24.3 76.7 22.5C76.7 20.7 75.6 19.4 74.1 19.4C72.6 19.4 71.5 20.7 71.5 22.5C71.5 24.3 72.6 25.6 74.1 25.6Z" fill="#111827"/>
  <path d="M81.1 28V12H84.1V21.1L88.2 17H91.8L87.4 21.3L92.1 28H88.6L85.3 23.3L84.1 24.5V28H81.1Z" fill="#111827"/>
  <path d="M93.2 28V17H96.2V28H93.2ZM94.7 15.4C93.7 15.4 93 14.7 93 13.8C93 12.9 93.7 12.2 94.7 12.2C95.7 12.2 96.4 12.9 96.4 13.8C96.4 14.7 95.7 15.4 94.7 15.4Z" fill="#111827"/>
  <path d="M101.8 28.2C99.5 28.2 98 26.9 98 24.9C98 22.9 99.6 21.8 102.4 21.6L105.1 21.4V21C105.1 19.8 104.4 19.2 103.1 19.2C101.9 19.2 101.1 19.8 100.9 20.7H98.2C98.5 18.4 100.4 16.8 103.2 16.8C106.2 16.8 108 18.3 108 21V28H105.2V26.6C104.5 27.6 103.3 28.2 101.8 28.2ZM102.7 25.9C104.1 25.9 105.1 25 105.1 23.7V23.3L102.8 23.5C101.6 23.6 101 24 101 24.8C101 25.5 101.7 25.9 102.7 25.9Z" fill="#111827"/>
  <path d="M110.2 28V12H113.2V28H110.2Z" fill="#111827"/>
  <path d="M120.6 28.2C117.3 28.2 115 25.9 115 22.5C115 19.2 117.3 16.8 120.5 16.8C123.7 16.8 125.8 19 125.8 22.3V23.2H118C118.2 24.8 119.2 25.8 120.7 25.8C121.9 25.8 122.7 25.3 123.1 24.5H125.7C125.1 26.8 123.2 28.2 120.6 28.2ZM118 21.2H122.9C122.7 19.9 121.8 19.1 120.5 19.1C119.2 19.1 118.3 19.9 118 21.2Z" fill="#111827"/>
  <path d="M130.5 28L126.1 17H129.3L131.9 24.5L134.5 17H137.6L133.2 28H130.5Z" fill="#111827"/>
  <path d="M139.4 28.2C138.4 28.2 137.7 27.5 137.7 26.5C137.7 25.5 138.4 24.8 139.4 24.8C140.4 24.8 141.1 25.5 141.1 26.5C141.1 27.5 140.4 28.2 139.4 28.2Z" fill="#0F766E"/>
  <path d="M142.2 28L147.9 12.8H151.3L157 28H153.7L152.5 24.7H146.6L145.4 28H142.2ZM147.5 22.1H151.6L149.5 16.1L147.5 22.1Z" fill="#111827"/>
  <path d="M158.6 28V12.8H161.8V28H158.6Z" fill="#111827"/>
</svg>
